# xmcd
#
# Track frame offsets:
#	182
#	11585
#	25902
#	40680
#	50362
#	63280
#	76682
#	87470
#	103100
#	114940
#
# Disc length: 1685 seconds
# Revision: 0
# Processed by: cddbd v1.5.2PL0 Copyright (c) Steve Scherf et al.
# Submitted via: dBpowerAMP V12.0
#
DISCID=6d06930a
DTITLE=Jane Carter - On The Same Train Of Thought
DYEAR=1994
DGENRE=Country
TTITLE0=On The Same Train Of Thought
TTITLE1=It Ain't Easy Being Easy
TTITLE2=He's A Heartache
TTITLE3=Womanhood
TTITLE4=Love Bug
TTITLE5=Go On Back To Your World
TTITLE6=Am I That Easy To Forget
TTITLE7=Blanket On The Ground
TTITLE8=Silver Thread And golden Needles
TTITLE9=Wild Side Of Life
EXTD=
EXTT0=
EXTT1=
EXTT2=
EXTT3=
EXTT4=
EXTT5=
EXTT6=
EXTT7=
EXTT8=
EXTT9=
PLAYORDER=
